<svg width="425" height="426" viewBox="0 0 425 426" fill="none" xmlns="http://www.w3.org/2000/svg">
<path d="M212.282 307.006L118.415 213.14L212.282 119.273L306.148 213.14L212.282 307.006ZM242.148 413.14C238.237 417.051 233.615 420.073 228.282 422.206C222.948 424.34 217.615 425.406 212.282 425.406C206.948 425.406 201.615 424.34 196.282 422.206C190.948 420.073 186.326 417.051 182.415 413.14L12.2818 243.006C8.37069 239.095 5.34847 234.473 3.21514 229.14C1.0818 223.806 0.0151367 218.473 0.0151367 213.14C0.0151367 207.806 1.0818 202.473 3.21514 197.14C5.34847 191.806 8.37069 187.184 12.2818 183.273L181.882 13.6731C186.148 9.40644 190.86 6.20644 196.015 4.07311C201.171 1.93977 206.593 0.873108 212.282 0.873108C217.971 0.873108 223.393 1.93977 228.548 4.07311C233.704 6.20644 238.415 9.40644 242.682 13.6731L412.282 183.273C416.193 187.184 419.215 191.806 421.348 197.14C423.482 202.473 424.548 207.806 424.548 213.14C424.548 218.473 423.482 223.806 421.348 229.14C419.215 234.473 416.193 239.095 412.282 243.006L242.148 413.14ZM212.282 366.74L365.882 213.14L212.282 59.5398L58.6818 213.14L212.282 366.74Z" fill="#050505"/>
</svg>
